# xmcd
#
# Track frame offsets:
#	150
#	11490
#	21483
#	33368
#	47985
#	62452
#	75583
#	88757
#	101634
#	113975
#	128035
#	141492
#
# Disc length: 2061 seconds
#
# Revision: 1
# Processed by: cddbd v1.4b41PL2 Copyright (c) Steve Scherf et al.
# Submitted via: audiograbber 1.80
#
DISCID=9f080b0c
DTITLE=Lefty Frizzell - Songs Of Jimmie Rodgers
DYEAR=1900
DGENRE=
TTITLE0=Blue Yodel No. 2 (My Loving Gal Lucille)
TTITLE1=Brakeman's Blues
TTITLE2=My Rough And Rowdy Ways
TTITLE3=Treasure Untold
TTITLE4=Blue Yodel No. 6
TTITLE5=I'm Lonely And Blue
TTITLE6=Travelin' Blues
TTITLE7=My Old Pal
TTITLE8=Lullaby Yodel
TTITLE9=Never No More Blues
TTITLE10=California Blues (Blue Yodel #4)
TTITLE11=Sleep Baby Sleep
EXTD=1999 - Sony Music
EXTT0=
EXTT1=
EXTT2=
EXTT3=
EXTT4=
EXTT5=
EXTT6=
EXTT7=
EXTT8=
EXTT9=
EXTT10=
EXTT11=
PLAYORDER=
